<?xml version="1.0" standalone="no"?>
<!DOCTYPE svg PUBLIC "-//W3C//DTD SVG 20010904//EN"
 "http://www.w3.org/TR/2001/REC-SVG-20010904/DTD/svg10.dtd">
<svg version="1.0" xmlns="http://www.w3.org/2000/svg"
 width="512.000000pt" height="512.000000pt" viewBox="0 0 512.000000 512.000000"
 preserveAspectRatio="xMidYMid meet">
<metadata>
Created by potrace 1.14, written by Peter Selinger 2001-2017
</metadata>
<g transform="translate(0.000000,512.000000) scale(0.100000,-0.100000)"
fill="#000000" stroke="none">
<path d="M2420 5117 c-3 -2 -41 -7 -85 -11 -103 -8 -143 -13 -180 -21 -16 -4
-37 -7 -45 -7 -8 0 -37 -6 -65 -13 -27 -8 -61 -16 -75 -19 -95 -20 -263 -72
-325 -101 -16 -7 -36 -15 -44 -17 -8 -2 -68 -30 -135 -62 -67 -33 -123 -60
-126 -61 -3 0 -16 -8 -30 -16 -141 -90 -169 -107 -174 -102 -3 4 -6 1 -6 -5 0
-5 -15 -20 -33 -31 -18 -11 -42 -28 -54 -38 -52 -44 -63 -53 -67 -53 -9 0
-105 -88 -211 -195 -116 -115 -208 -215 -199 -215 3 0 -1 -6 -8 -13 -7 -8 -22
-26 -33 -41 -11 -16 -25 -33 -30 -40 -6 -6 -25 -33 -42 -61 -18 -27 -37 -55
-43 -62 -5 -7 -10 -17 -10 -23 0 -5 -3 -10 -7 -10 -5 0 -13 -10 -19 -23 -6
-12 -34 -65 -63 -117 -29 -52 -52 -97 -53 -100 0 -3 -8 -21 -18 -40 -9 -19
-25 -57 -35 -85 -10 -27 -22 -54 -25 -60 -7 -10 -32 -79 -36 -100 -1 -5 -11
-37 -23 -70 -11 -33 -22 -71 -25 -85 -5 -24 -10 -48 -20 -87 -26 -101 -47
-226 -48 -285 0 -21 -4 -38 -8 -38 -4 0 -6 -114 -4 -252 2 -236 6 -296 19
-373 3 -16 8 -45 11 -64 5 -34 20 -105 39 -181 3 -11 8 -30 11 -42 7 -29 7
-30 28 -103 9 -33 22 -71 28 -85 7 -14 12 -27 12 -30 1 -3 7 -21 15 -40 7 -19
19 -48 25 -65 23 -61 146 -302 181 -355 20 -30 43 -66 50 -80 7 -14 22 -34 33
-46 11 -11 25 -31 32 -45 7 -13 19 -31 26 -39 7 -8 54 -62 103 -120 111 -131
243 -259 349 -340 18 -14 43 -34 55 -44 86 -74 372 -238 547 -314 122 -52 375
-131 480 -149 53 -9 65 -11 65 -13 0 -1 14 -3 30 -5 17 -2 59 -7 95 -12 36 -4
182 -8 325 -8 232 0 303 4 410 21 17 3 40 5 52 5 12 -1 25 4 28 9 4 6 10 8 14
6 4 -3 34 2 67 11 32 9 66 17 74 17 9 1 21 5 28 10 6 4 12 4 12 0 0 -3 7 -1
15 6 8 7 15 10 15 6 0 -3 33 6 73 20 76 27 89 31 97 32 3 1 35 15 72 31 37 17
72 31 77 31 6 0 32 13 58 28 26 16 51 29 56 30 11 3 138 70 169 90 14 9 48 30
74 46 27 16 57 38 68 48 11 10 23 18 27 18 4 0 14 6 21 12 7 7 40 33 73 58
148 111 351 319 464 474 36 50 71 97 78 104 6 7 27 39 45 72 18 33 36 60 40
60 5 0 8 4 8 9 0 5 16 37 35 70 19 34 34 64 34 66 1 3 14 31 29 63 16 31 43
95 62 142 18 47 37 94 41 105 19 44 38 105 32 105 -3 0 0 6 6 13 6 8 8 17 4
20 -3 4 -1 7 6 7 7 0 10 4 7 9 -3 4 4 39 15 77 11 38 22 86 25 107 7 46 12 72
14 72 16 0 22 738 7 830 -4 28 -10 64 -12 80 -7 48 -10 59 -18 73 -5 6 -6 12
-3 12 2 0 -4 29 -14 65 -10 36 -16 65 -13 65 3 0 0 7 -7 15 -7 8 -9 15 -5 15
4 0 2 7 -5 15 -7 8 -10 15 -6 15 3 0 -6 30 -20 68 -13 37 -26 74 -29 82 -2 8
-15 41 -29 73 -14 32 -26 62 -26 67 0 5 -13 32 -30 60 -16 27 -28 50 -26 50 3
0 -13 32 -35 71 -21 40 -39 75 -39 80 0 4 -4 9 -8 11 -4 2 -21 26 -37 53 -31
55 -183 265 -221 305 -156 169 -304 307 -409 381 -33 24 -62 46 -65 50 -8 11
-149 99 -159 99 -5 0 -14 6 -20 14 -11 13 -288 155 -313 160 -7 2 -26 9 -43
16 -71 30 -258 89 -266 84 -5 -3 -9 0 -9 6 0 6 -4 9 -8 6 -5 -3 -38 4 -73 14
-35 11 -80 22 -100 24 -20 1 -40 5 -45 8 -5 3 -19 4 -31 3 -13 -1 -23 1 -23 4
0 3 -12 7 -27 7 -16 1 -48 4 -73 8 -64 8 -434 20 -440 13z"/>
</g>
</svg>
